HIERARCHY
ROOT SimulationBone
{
	OFFSET 0.000000 0.000000 0.000000
	CHANNELS 6 Xposition Yposition Zposition Zrotation Yrotation Xrotation 
	JOINT Hips
	{
		OFFSET 0.000000 0.000000 0.000000
		CHANNELS 6 Xposition Yposition Zposition Zrotation Yrotation Xrotation 
		JOINT LeftUpLeg
		{
			OFFSET 0.103458 1.857838 10.548509
			CHANNELS 3 Zrotation Yrotation Xrotation
			JOINT LeftLeg
			{
				OFFSET 43.500004 -0.000038 -0.000002
				CHANNELS 3 Zrotation Yrotation Xrotation
				JOINT LeftFoot
				{
					OFFSET 42.372196 0.000015 0.000010
					CHANNELS 3 Zrotation Yrotation Xrotation
					JOINT LeftToe
					{
						OFFSET 17.300011 0.000003 -0.000006
						CHANNELS 3 Zrotation Yrotation Xrotation
						End Site
						{
							OFFSET 0.000000 0.000000 0.000000
						}
					}
				}
			}
		}
		JOINT RightUpLeg
		{
			OFFSET 0.103461 1.857837 -10.548498
			CHANNELS 3 Zrotation Yrotation Xrotation
			JOINT RightLeg
			{
				OFFSET 43.500046 -0.000042 0.000031
				CHANNELS 3 Zrotation Yrotation Xrotation
				JOINT RightFoot
				{
					OFFSET 42.372253 0.000011 -0.000004
					CHANNELS 3 Zrotation Yrotation Xrotation
					JOINT RightToe
					{
						OFFSET 17.299978 -0.000010 0.000025
						CHANNELS 3 Zrotation Yrotation Xrotation
						End Site
						{
							OFFSET 0.000000 0.000000 0.000000
						}
					}
				}
			}
		}
		JOINT Spine
		{
			OFFSET 6.901964 -2.603743 0.000001
			CHANNELS 3 Zrotation Yrotation Xrotation
			JOINT Spine1
			{
				OFFSET 12.588102 0.000002 0.000000
				CHANNELS 3 Zrotation Yrotation Xrotation
				JOINT Spine2
				{
					OFFSET 12.343204 0.000009 -0.000003
					CHANNELS 3 Zrotation Yrotation Xrotation
					JOINT Neck
					{
						OFFSET 25.832901 -0.000015 0.000002
						CHANNELS 3 Zrotation Yrotation Xrotation
						JOINT Head
						{
							OFFSET 11.766612 0.000023 -0.000003
							CHANNELS 3 Zrotation Yrotation Xrotation
							End Site
							{
								OFFSET 0.000000 0.000000 0.000000
							}
						}
					}
					JOINT LeftShoulder
					{
						OFFSET 19.745905 -1.480377 6.000110
						CHANNELS 3 Zrotation Yrotation Xrotation
						JOINT LeftArm
						{
							OFFSET 11.284127 -0.000004 -0.000022
							CHANNELS 3 Zrotation Yrotation Xrotation
							JOINT LeftForeArm
							{
								OFFSET 33.000050 -0.000022 0.000026
								CHANNELS 3 Zrotation Yrotation Xrotation
								JOINT LeftHand
								{
									OFFSET 25.200010 0.000035 0.000011
									CHANNELS 3 Zrotation Yrotation Xrotation
									End Site
									{
										OFFSET 0.000000 0.000000 0.000000
									}
								}
							}
						}
					}
					JOINT RightShoulder
					{
						OFFSET 19.746092 -1.480381 -6.000066
						CHANNELS 3 Zrotation Yrotation Xrotation
						JOINT RightArm
						{
							OFFSET 11.284147 -0.000020 -0.000017
							CHANNELS 3 Zrotation Yrotation Xrotation
							JOINT RightForeArm
							{
								OFFSET 33.000095 0.000005 0.000016
								CHANNELS 3 Zrotation Yrotation Xrotation
								JOINT RightHand
								{
									OFFSET 25.199768 0.000156 0.000415
									CHANNELS 3 Zrotation Yrotation Xrotation
									End Site
									{
										OFFSET 0.000000 0.000000 0.000000
									}
								}
							}
						}
					}
				}
			}
		}
	}
}
MOTION
Frames: 7
Frame Time: 0.033333
-165.785560 0.000000 474.317904 0.000000 -51.932118 0.000000 2.811508 81.252052 -0.394529 104.872134 -3.743136 170.225829 161.991064 6.095311 177.763910 -65.418268 -2.581641 6.819088 94.107193 -3.525605 7.689108 21.454553 0.003090 -0.000001 154.143491 11.968904 -174.508205 -78.056413 -3.836423 6.806633 94.662877 -4.031173 3.759862 21.454558 -0.003113 -0.000017 9.941151 -2.944517 2.391043 9.762587 -6.080066 4.530938 9.443662 -6.052500 4.567603 23.435708 3.622864 36.180608 -29.204598 -19.120963 47.743617 -156.644119 -74.408176 -25.369088 -26.092648 49.254342 21.911607 -55.022064 -19.205527 2.203030 0.127595 -14.573689 8.226968 150.854003 75.248460 -28.337441 8.729719 -49.759841 -60.318924 -46.657873 20.086731 -2.011964 4.489197 -9.476562 -25.611464 
-166.766689 0.000000 480.192691 0.000000 -48.613820 0.000000 2.695820 82.185013 -0.581264 104.760193 -3.722777 172.142184 164.900192 4.304897 -179.148567 -64.684828 -2.459671 8.961072 93.686782 -5.014646 7.105764 21.454551 0.003094 -0.000001 151.831554 14.648898 -174.428346 -67.722753 -4.393059 8.056926 88.059020 -4.731329 3.835020 21.454557 -0.003097 -0.000017 9.942592 -2.823852 2.276633 9.774978 -5.829759 4.311646 9.456085 -5.803503 4.346800 23.727179 3.588958 36.836556 -29.083246 -19.216442 48.448277 -155.741400 -74.565728 -26.290674 -31.007355 49.512543 17.964721 -59.868903 -19.278544 2.386373 -0.542053 -13.797694 11.881600 152.430807 75.711875 -26.705060 15.043826 -50.730472 -65.157901 -46.856037 20.235622 -2.028090 7.044291 -12.520551 -25.949209 
-167.828755 0.000000 485.894984 0.000000 -45.203725 0.000000 2.684515 83.059189 -0.720076 104.478401 -3.202027 174.125042 167.495732 1.658300 -175.466166 -63.170869 -2.480485 10.949334 93.521211 -6.424268 6.524277 21.454557 0.003095 0.000001 151.373835 17.331800 -175.411511 -56.879756 -4.673713 5.652800 80.026273 -2.302027 6.222900 21.454560 -0.003105 -0.000017 9.917620 -2.567234 2.183428 9.736487 -5.308938 4.147139 9.417839 -5.283681 4.179139 24.219805 3.504495 37.239605 -29.304063 -19.592466 49.115597 -155.603102 -74.512029 -26.433525 -35.207849 49.262517 15.705837 -63.381102 -19.216305 2.518115 -2.531778 -11.134918 17.595211 153.510619 76.151814 -25.580751 21.022788 -52.086425 -67.943129 -46.210171 19.619713 -1.967000 7.721604 -12.411660 -25.255833 
-168.968123 0.000000 491.422902 0.000000 -41.714842 0.000000 2.729759 83.675232 -0.735397 103.986341 -2.730827 176.465097 169.159293 -1.282000 -171.716625 -61.495075 -2.226037 12.867199 93.309639 -7.804802 5.922150 21.454551 0.003095 0.000003 152.716650 20.019498 -178.333152 -45.712909 -4.001066 1.468347 73.199964 1.304469 7.224858 21.454558 -0.003116 -0.000019 9.866954 -2.319231 1.976766 9.650708 -4.795134 3.756203 9.332163 -4.772239 3.785110 24.633272 3.782742 37.477620 -29.183366 -20.150255 49.579086 -155.358595 -74.465366 -26.685023 -38.884643 48.753778 14.494464 -65.582869 -18.888362 2.583067 -3.896456 -9.723594 21.814909 154.680740 75.881305 -24.405111 25.542554 -52.517850 -69.530492 -46.298284 19.047253 -1.931773 7.867020 -12.743283 -24.969611 
-170.176819 0.000000 496.785957 0.000000 -38.124874 0.000000 2.707373 84.033707 -0.678227 103.048754 -2.333784 178.989083 169.430410 -4.413804 -167.767068 -59.687746 -1.984881 14.777364 92.858765 -9.206182 5.178688 21.454551 0.003084 0.000000 154.887435 22.649906 175.240511 -36.143315 -2.412665 -1.787203 67.476156 4.302185 7.991694 21.454558 -0.003105 -0.000016 9.771395 -2.093077 1.696786 9.475883 -4.317971 3.218560 9.157365 -4.298334 3.244595 24.510530 3.785138 37.601172 -29.183366 -20.481447 49.854186 -154.609118 -74.423975 -27.453701 -42.446105 48.091410 13.675278 -66.649245 -18.293231 2.584531 -3.290343 -8.369650 22.424049 156.159626 75.627782 -22.912944 27.949146 -52.792287 -71.379192 -46.472908 19.057852 -1.937879 6.251164 -10.728781 -22.580363 
-171.441214 0.000000 501.993255 0.000000 -34.436908 0.000000 2.619681 84.067322 -0.592640 102.232119 -1.914695 -178.281949 168.647780 -7.816196 -163.835884 -57.985082 -1.881181 16.921712 92.135195 -10.773972 4.457690 21.454551 0.003090 0.000001 157.927607 24.897901 167.733026 -29.738128 -1.563007 -2.660964 62.481730 5.846806 9.194656 21.454555 -0.003110 -0.000020 9.760376 -1.861409 1.400523 9.468884 -3.831112 2.645370 9.150385 -3.814933 2.668481 24.065881 4.257690 37.595718 -29.045127 -20.871402 49.943750 -154.952294 -74.636359 -27.097351 -45.149944 47.532594 13.847202 -66.448752 -18.307327 2.577379 -2.822819 -7.931675 21.600473 158.358400 75.414625 -20.683216 28.138614 -52.864766 -72.055552 -47.454351 19.171576 -1.976176 6.210931 -9.163197 -22.385916 
-172.752262 0.000000 507.053361 0.000000 -30.664705 0.000000 2.622559 83.544151 -0.183568 101.773429 -1.514371 -175.472285 167.133937 -11.384092 -159.856083 -56.489114 -1.670272 19.220265 91.880695 -12.523337 3.389952 21.454553 0.003106 0.000001 161.372508 26.744704 161.772580 -27.172854 -0.683294 -4.026397 58.801058 8.596824 12.173343 21.454558 -0.003108 -0.000017 9.863774 -1.597454 1.101297 9.689035 -3.281471 2.065709 9.370593 -3.268802 2.085506 23.750863 4.783065 37.421927 -28.895979 -21.218471 49.839812 -157.577682 -74.725746 -24.406684 -46.224436 46.887439 14.208762 -65.781497 -18.298321 2.549797 -2.866460 -6.486483 20.842208 159.495299 75.518615 -19.518910 27.645363 -53.081488 -71.267922 -49.003254 19.241186 -2.030526 6.844544 -8.464447 -24.159656 
